<svg xmlns="http://www.w3.org/2000/svg" xmlns:xlink="http://www.w3.org/1999/xlink" style="margin:auto;background:#fff;display:block;" width="41px" height="41px" viewBox="0 0 100 100" preserveAspectRatio="xMidYMid">
<defs>
  <pattern id="ldio-rd42md8irbb-pattern" patternUnits="userSpaceOnUse" x="0" y="0" width="100" height="100">
    <g>
      <g transform="rotate(20 50 50) scale(1.2)">
        <rect x="-20" y="-10" width="10" height="120" fill="#456caa"></rect>
        <rect x="-10" y="-10" width="10" height="120" fill="#88a2ce"></rect>
        <rect x="0" y="-10" width="10" height="120" fill="#456caa"></rect>
        <rect x="10" y="-10" width="10" height="120" fill="#88a2ce"></rect>
        <rect x="20" y="-10" width="10" height="120" fill="#456caa"></rect>
        <rect x="30" y="-10" width="10" height="120" fill="#88a2ce"></rect>
        <rect x="40" y="-10" width="10" height="120" fill="#456caa"></rect>
        <rect x="50" y="-10" width="10" height="120" fill="#88a2ce"></rect>
        <rect x="60" y="-10" width="10" height="120" fill="#456caa"></rect>
        <rect x="70" y="-10" width="10" height="120" fill="#88a2ce"></rect>
        <rect x="80" y="-10" width="10" height="120" fill="#456caa"></rect>
        <rect x="90" y="-10" width="10" height="120" fill="#88a2ce"></rect>
        <rect x="100" y="-10" width="10" height="120" fill="#456caa"></rect>
        <rect x="110" y="-10" width="10" height="120" fill="#456caa"></rect>
      </g>
      <animateTransform attributeName="transform" type="translate" values="0 0;26 0" keyTimes="0;1" dur="1s" repeatCount="indefinite"></animateTransform>
    </g>
  </pattern>
</defs>
<rect rx="6.3" ry="6.3" x="18.5" y="42.5" stroke="#c2d2ee" stroke-width="2.5" width="63" height="15" fill="url(#ldio-rd42md8irbb-pattern)"></rect>
</svg>